<svg version="1.1" id="Layer_1" xmlns="http://www.w3.org/2000/svg" xmlns:xlink="http://www.w3.org/1999/xlink" x="0px" y="0px"
	 width="100%" viewBox="0 0 3350 1271" enable-background="new 0 0 3350 1271" xml:space="preserve">
<path fill="#FFFFFF" opacity="1.000000" stroke="none" 
	d="
M2376.000000,1274.000000 
	C1584.000000,1274.000000 793.000000,1274.000000 2.000000,1274.000000 
	C2.000000,850.000000 2.000000,426.000000 2.000000,2.000000 
	C1118.666626,2.000000 2235.333252,2.000000 3352.000000,2.000000 
	C3352.000000,426.000000 3352.000000,850.000000 3352.000000,1274.000000 
	C3027.000000,1274.000000 2702.000000,1274.000000 2376.000000,1274.000000 
M357.569733,382.580627 
	C307.139008,443.122498 288.089050,512.539307 302.775940,589.728027 
	C327.797516,721.231995 455.313446,812.836914 596.064026,783.342957 
	C738.417358,753.513123 823.077698,605.181580 778.156982,466.766968 
	C744.579407,363.303925 641.492371,284.468292 515.622314,298.604340 
	C452.800659,305.659637 400.446442,334.124420 357.569733,382.580627 
M950.281555,748.521606 
	C978.931030,776.183044 1013.705811,786.302490 1052.726318,784.393616 
	C1098.533813,782.152771 1132.588989,760.821533 1153.916870,720.444946 
	C1160.838257,707.341797 1166.031738,692.983154 1169.784302,678.615967 
	C1179.411377,641.757324 1179.880981,604.157104 1175.295776,566.513123 
	C1172.465088,543.273621 1166.633789,520.775269 1156.203735,499.625732 
	C1124.195801,434.721497 1061.560059,422.579651 1011.969604,436.161346 
	C986.317139,443.186981 966.541992,459.266785 949.770020,479.380005 
	C947.470459,482.137756 945.141602,484.871094 941.704041,488.945953 
	C938.929993,471.151947 936.395569,454.894897 933.898010,438.874603 
	C914.612549,437.001007 845.633606,437.733582 838.812012,439.767700 
	C838.812012,597.955139 838.812012,756.119385 838.812012,915.287842 
	C873.456055,910.105591 907.473389,905.017090 942.270630,899.811951 
	C942.270630,846.669128 942.270630,794.618225 942.270630,740.981384 
	C945.437256,743.999268 947.300903,745.775330 950.281555,748.521606 
M2266.858398,759.945007 
	C2294.316650,737.639343 2308.420410,707.633362 2315.961914,674.012207 
	C2324.300293,636.839233 2324.326660,599.266113 2319.435059,561.721802 
	C2316.321289,537.822021 2309.560059,514.816467 2297.731689,493.568817 
	C2270.926758,445.418365 2223.959717,425.156219 2170.267334,433.351837 
	C2138.605957,438.184570 2114.494629,455.703949 2094.317871,479.559296 
	C2092.019287,482.276733 2089.668701,484.949982 2086.230713,488.930756 
	C2083.404541,471.030853 2080.845703,454.823517 2078.287354,438.618225 
	C2046.172485,438.618225 2015.243774,438.618225 1982.805786,438.618225 
	C1982.805786,597.420593 1982.805664,755.859619 1982.805786,915.324158 
	C2018.101929,910.411255 2052.098877,905.523254 2085.279785,900.059143 
	C2085.905029,898.349854 2086.115967,898.041504 2086.116455,897.732788 
	C2086.200195,847.074036 2086.267822,796.415222 2086.344971,745.756470 
	C2086.345947,745.093811 2086.413086,744.421997 2086.542969,743.773254 
	C2086.594971,743.513428 2086.869873,743.266174 2087.098877,743.082397 
	C2087.354248,742.877258 2087.672607,742.750671 2088.640137,742.216248 
	C2111.282471,766.795776 2139.413818,781.090210 2173.086670,784.123291 
	C2206.703613,787.151367 2238.158447,781.744812 2266.858398,759.945007 
M2769.249268,617.771851 
	C2787.944336,666.951294 2806.640625,716.130127 2825.333740,765.310364 
	C2831.736816,782.156555 2831.418213,782.033325 2824.606201,799.252991 
	C2816.896484,818.742737 2802.581299,828.288452 2782.080811,827.453918 
	C2766.833496,826.833191 2751.645508,824.549500 2736.457764,822.777527 
	C2731.612061,822.212158 2726.852051,820.912659 2720.841553,819.705811 
	C2723.437256,848.775879 2725.938965,876.790833 2728.441162,904.813049 
	C2730.514648,905.366516 2731.748779,905.785645 2733.017090,906.021240 
	C2758.079834,910.675720 2783.416260,911.510742 2808.707764,909.667725 
	C2843.197021,907.154358 2871.062744,891.984619 2891.162354,863.343506 
	C2901.379395,848.784363 2909.189209,832.965881 2915.489014,816.436584 
	C2962.213623,693.841187 3008.811279,571.197388 3055.424561,448.559692 
	C3056.564453,445.560242 3057.429199,442.456177 3058.600830,438.851379 
	C3024.573486,438.851379 2991.746338,438.851379 2958.725098,438.851379 
	C2933.616699,512.410706 2908.670654,585.494141 2883.724609,658.577637 
	C2856.149170,582.573120 2831.271484,506.496979 2805.337891,430.712830 
	C2771.140137,435.945221 2738.306396,440.968933 2704.149902,446.195007 
	C2725.954590,503.758392 2747.280029,560.057068 2769.249268,617.771851 
M1594.574585,652.999817 
	C1594.691162,694.640686 1594.806641,736.281494 1594.949707,777.922302 
	C1594.950684,778.183289 1595.325439,778.452759 1595.545410,778.700623 
	C1595.760254,778.942383 1596.000732,779.161316 1596.229492,779.390808 
	C1619.467773,781.140503 1690.457886,780.347961 1698.009033,778.140686 
	C1698.009033,774.605774 1698.009155,770.951721 1698.009155,767.297668 
	C1698.009399,697.992554 1698.009155,628.687439 1698.010010,559.382324 
	C1698.010010,554.787659 1697.520996,550.460754 1702.105957,546.895935 
	C1714.246948,537.456055 1726.606689,528.470337 1741.036377,522.831482 
	C1754.265747,517.661743 1767.877686,515.368713 1782.128784,517.565491 
	C1797.017212,519.860535 1806.302856,528.434082 1809.707520,542.753296 
	C1811.457275,550.112061 1812.035767,557.899475 1812.055176,565.496033 
	C1812.227661,633.134705 1812.156860,700.774048 1812.157715,768.413147 
	C1812.157715,771.962830 1812.157715,775.512512 1812.157715,779.450562 
	C1846.892700,779.450562 1880.405396,779.450562 1915.067017,779.450562 
	C1915.067017,775.485657 1915.067017,771.904907 1915.067017,768.324158 
	C1915.066895,692.021912 1915.100464,615.719543 1915.020386,539.417419 
	C1915.011353,530.765076 1914.845947,522.061523 1913.922852,513.470825 
	C1910.647095,482.983429 1898.456543,457.795898 1870.105591,442.846893 
	C1858.488281,436.721252 1845.909180,433.441193 1832.895630,432.173889 
	C1781.384766,427.157288 1738.767090,444.569183 1704.730835,483.386078 
	C1702.832275,485.551392 1700.810425,487.608734 1697.962158,490.664551 
	C1695.203369,472.378082 1692.643555,455.410675 1690.127563,438.733337 
	C1657.823242,438.733337 1626.649170,438.733337 1594.574585,438.733337 
	C1594.574585,509.873932 1594.574585,580.436829 1594.574585,652.999817 
M2630.999268,779.975891 
	C2643.888428,779.975891 2656.777344,779.975891 2670.066406,779.975891 
	C2670.261230,775.771301 2670.515381,772.831604 2670.516357,769.891846 
	C2670.538086,700.900879 2670.650879,631.909485 2670.417480,562.919312 
	C2670.378174,551.303955 2669.490479,539.598511 2667.852051,528.097534 
	C2660.665771,477.657043 2630.235352,445.870148 2580.177979,435.812897 
	C2551.775391,430.106323 2523.226318,430.523468 2494.635254,433.873383 
	C2452.005615,438.868134 2413.340820,453.827026 2379.393311,480.356812 
	C2374.247070,484.378510 2369.434814,488.827423 2365.762451,491.970795 
	C2384.605957,510.847992 2402.855225,529.129883 2421.545898,547.854065 
	C2422.926758,546.875000 2425.238525,544.998352 2427.766602,543.483337 
	C2440.598877,535.793091 2452.990234,527.140259 2466.465576,520.800110 
	C2490.250000,509.609467 2515.552490,505.760010 2541.452148,511.948364 
	C2563.330078,517.175781 2573.743896,535.459045 2568.608887,557.752258 
	C2567.361816,557.952332 2566.057861,558.174561 2564.749512,558.369446 
	C2538.424316,562.292175 2511.937500,565.367432 2485.817627,570.363098 
	C2458.253174,575.635071 2431.751221,584.626526 2407.494629,599.301575 
	C2371.384033,621.148010 2353.065430,652.790588 2353.639648,695.338318 
	C2354.153320,733.384155 2376.065430,764.846558 2411.860352,778.098999 
	C2433.100342,785.962769 2454.929688,786.093262 2476.895508,782.956665 
	C2510.116699,778.212952 2537.835938,762.582703 2561.376465,739.051270 
	C2563.785645,736.643188 2566.277588,734.317993 2569.736084,730.986206 
	C2572.613770,748.540833 2575.169434,764.130737 2577.766846,779.975891 
	C2595.714355,779.975891 2612.357178,779.975891 2630.999268,779.975891 
M1511.658447,495.369476 
	C1491.031250,463.059998 1461.663208,443.511871 1424.359131,435.511108 
	C1397.229370,429.692413 1370.015259,429.485474 1343.150635,436.232941 
	C1278.682983,452.424896 1235.477905,491.385803 1218.869263,556.710022 
	C1209.360718,594.108215 1210.067017,631.965698 1219.663208,669.431396 
	C1234.114990,725.854797 1269.511108,762.127747 1325.365967,778.579834 
	C1352.937134,786.700867 1381.127197,787.941895 1409.494507,785.839417 
	C1453.001343,782.614685 1492.762939,768.885193 1527.485352,741.877502 
	C1530.058350,739.876221 1532.483643,737.684875 1535.322388,735.291199 
	C1522.384399,715.479370 1509.858276,696.298096 1497.422363,677.255066 
	C1496.197021,677.624268 1495.457153,677.667236 1494.946777,678.031616 
	C1492.512085,679.770081 1490.173462,681.643250 1487.739868,683.383484 
	C1455.983398,706.091919 1420.785767,717.223328 1381.642334,713.978149 
	C1343.126709,710.785034 1313.272583,675.525146 1316.869995,637.130371 
	C1327.341797,637.130371 1337.924072,637.130310 1348.506226,637.130310 
	C1359.167480,637.130310 1369.828735,637.130310 1380.489990,637.130310 
	C1391.151245,637.130310 1401.812500,637.130310 1412.473755,637.130310 
	C1423.468140,637.130310 1434.462646,637.130310 1445.457031,637.130310 
	C1456.118286,637.130310 1466.779663,637.130310 1477.440918,637.130310 
	C1488.102173,637.130310 1498.764648,637.229309 1509.424316,637.102356 
	C1519.939331,636.977112 1530.508667,637.707214 1541.924438,636.459473 
	C1541.214355,619.822266 1541.113770,604.162354 1539.764404,588.610779 
	C1536.946899,556.137939 1529.636230,524.869873 1511.658447,495.369476 
M2383.787842,920.998535 
	C2383.787842,932.876709 2383.787842,944.754944 2383.787842,956.774414 
	C2386.248779,957.227295 2387.512695,957.660889 2388.777100,957.662415 
	C2406.766357,957.683716 2424.757080,957.766724 2442.743896,957.540710 
	C2447.368164,957.482544 2452.077148,956.810303 2456.578613,955.722229 
	C2470.125977,952.447571 2478.812256,944.285645 2481.231689,930.127625 
	C2483.811768,915.027649 2479.039795,903.237854 2465.285400,895.362610 
	C2466.496826,894.064209 2467.383301,893.130920 2468.251465,892.181091 
	C2483.002686,876.041565 2476.914795,851.463257 2456.169922,844.538025 
	C2451.218750,842.885193 2445.728760,842.331543 2440.467041,842.223022 
	C2425.814941,841.920593 2411.152344,842.117493 2396.493896,842.117310 
	C2392.600830,842.117249 2388.707764,842.117249 2383.787842,842.117249 
	C2383.787842,868.539612 2383.787842,893.769348 2383.787842,920.998535 
M2308.973389,957.715576 
	C2319.255371,957.114746 2329.696289,957.430847 2339.780029,955.685181 
	C2352.928223,953.409058 2361.953857,945.609253 2364.745361,931.787720 
	C2367.557373,917.865295 2365.001465,905.984741 2352.481934,897.604309 
	C2351.416260,896.890930 2350.488525,895.971008 2348.945557,894.688904 
	C2350.250244,893.671631 2351.446533,892.982239 2352.333740,892.010559 
	C2366.472900,876.523621 2361.226318,852.848083 2341.690430,845.246460 
	C2336.839355,843.358887 2331.361084,842.370605 2326.145020,842.265198 
	C2308.499512,841.908447 2290.842773,842.112305 2273.190430,842.173767 
	C2271.631836,842.179199 2270.074951,842.708557 2268.513672,842.995239 
	C2268.513672,881.277527 2268.513672,919.034241 2268.513672,957.715515 
	C2281.809326,957.715515 2294.396240,957.715515 2308.973389,957.715576 
M2588.271729,940.726929 
	C2590.271729,940.732117 2592.329834,940.429504 2594.261475,940.795654 
	C2602.613525,942.378784 2606.627197,938.129517 2610.144043,931.041870 
	C2619.613525,911.957397 2629.806152,893.230652 2639.778320,874.397156 
	C2641.194336,871.722168 2642.983643,869.244751 2645.275391,865.602356 
	C2647.811035,869.934204 2649.573486,872.699829 2651.099121,875.590515 
	C2661.357910,895.026978 2671.542969,914.502380 2681.816162,933.931213 
	C2683.312500,936.761353 2684.124268,940.531372 2688.364990,940.610779 
	C2694.236084,940.720764 2700.110352,940.638367 2706.272461,940.638367 
	C2703.325195,929.684814 2649.997559,830.806030 2644.392090,825.708313 
	C2642.942627,827.953918 2641.380371,830.039673 2640.163086,832.310608 
	C2622.388428,865.474792 2604.651123,898.658936 2586.940674,931.857544 
	C2585.857178,933.888489 2584.862305,936.025696 2584.299072,938.234070 
	C2584.156006,938.794678 2585.830811,939.819153 2588.271729,940.726929 
M2490.728516,860.446960 
	C2508.090332,892.847717 2525.452148,925.248535 2543.025391,958.043457 
	C2549.595703,951.201355 2602.685791,852.015137 2605.140625,842.122803 
	C2601.315430,842.122803 2597.749756,842.493958 2594.290283,842.045898 
	C2587.010254,841.102905 2582.983154,843.979431 2579.677002,850.669556 
	C2569.951172,870.350708 2559.440918,889.645020 2549.174072,909.057190 
	C2547.859131,911.543579 2546.166504,913.830261 2543.922607,917.348389 
	C2541.595947,913.389709 2539.853760,910.678101 2538.356445,907.837524 
	C2528.115479,888.411682 2518.000244,868.918945 2507.635986,849.559631 
	C2506.165771,846.813477 2503.831787,842.968384 2501.431396,842.589783 
	C2495.482178,841.651672 2489.263428,842.426270 2483.194092,842.512329 
	C2483.194092,844.559631 2482.975342,845.301575 2483.228271,845.807983 
	C2485.457275,850.270203 2487.770508,854.690552 2490.728516,860.446960 
M2166.408203,919.161255 
	C2159.694580,900.993835 2150.301758,898.037903 2127.142578,907.730896 
	C2127.142578,898.555664 2127.142578,889.884827 2127.142578,880.326660 
	C2123.911377,881.235413 2122.096191,881.745911 2120.365723,882.232605 
	C2120.365723,907.462524 2120.365723,932.291138 2120.365723,959.120789 
	C2124.267334,956.801819 2126.913330,955.229065 2130.124268,953.320435 
	C2130.490234,953.543762 2131.854980,954.509644 2133.330566,955.256836 
	C2148.399902,962.887512 2162.745361,956.771545 2166.371582,940.410400 
	C2167.762695,934.134155 2166.743652,927.323792 2166.408203,919.161255 
M2206.251709,922.958008 
	C2203.445801,930.630676 2200.640137,938.303345 2197.272705,947.511414 
	C2195.563232,943.282043 2194.519531,940.858765 2193.596924,938.390198 
	C2189.759521,928.123901 2185.825439,917.890564 2182.199951,907.549500 
	C2180.351318,902.276428 2177.699951,901.915833 2173.327881,904.958435 
	C2173.969971,906.968262 2174.386475,908.548157 2174.972412,910.062378 
	C2180.487549,924.311584 2186.172119,938.497009 2191.519287,952.808716 
	C2195.340332,963.036072 2189.303711,971.570129 2178.461914,971.762207 
	C2176.562500,971.795898 2174.661865,971.767029 2172.885742,971.767029 
	C2172.057129,975.457703 2172.592285,977.549927 2176.158203,978.196716 
	C2185.343018,979.862671 2192.437012,976.558350 2196.418213,967.594727 
	C2200.593506,958.193848 2204.135254,948.508789 2207.859375,938.911072 
	C2212.282959,927.510010 2216.605469,916.069580 2221.111816,904.280090 
	C2216.486328,902.579041 2213.491211,902.754700 2211.937500,907.476074 
	C2210.381348,912.205750 2208.559570,916.848083 2206.251709,922.958008 
z"/>
<path fill="#014582" opacity="1.000000" stroke="none" 
	d="
M358.019043,382.033264 
	C400.446442,334.124420 452.800659,305.659637 515.622314,298.604340 
	C641.492371,284.468292 744.579407,363.303925 778.156982,466.766968 
	C823.077698,605.181580 738.417358,753.513123 596.064026,783.342957 
	C455.313446,812.836914 327.797516,721.231995 302.775940,589.728027 
	C288.089050,512.539307 307.139008,443.122498 358.019043,382.033264 
M433.903076,436.911011 
	C400.878052,470.833282 387.324615,511.942596 392.584259,558.332153 
	C397.242096,599.414490 416.798615,633.365173 449.994141,658.614929 
	C482.288025,683.178955 519.188660,692.522888 559.097534,687.527771 
	C595.752869,682.939941 626.559814,666.070251 651.133789,638.175232 
	C674.490601,611.662048 687.074402,580.616089 687.678345,545.506775 
	C688.503113,497.561279 687.899780,449.591003 687.863342,401.631378 
	C687.861145,398.743103 687.459778,395.855164 687.216309,392.593933 
	C683.957275,392.377472 681.362183,392.056396 678.766907,392.054810 
	C631.806396,392.026031 584.845398,391.927704 537.885864,392.142487 
	C529.948059,392.178772 521.891479,392.962219 514.104309,394.492340 
	C483.676697,400.471222 456.746948,413.393158 433.903076,436.911011 
z"/>
<path fill="#024582" opacity="1.000000" stroke="none" 
	d="
M949.723022,748.036499 
	C947.300903,745.775330 945.437256,743.999268 942.270630,740.981384 
	C942.270630,794.618225 942.270630,846.669128 942.270630,899.811951 
	C907.473389,905.017090 873.456055,910.105591 838.812012,915.287842 
	C838.812012,756.119385 838.812012,597.955139 838.812012,439.767700 
	C845.633606,437.733582 914.612549,437.001007 933.898010,438.874603 
	C936.395569,454.894897 938.929993,471.151947 941.704041,488.945953 
	C945.141602,484.871094 947.470459,482.137756 949.770020,479.380005 
	C966.541992,459.266785 986.317139,443.186981 1011.969604,436.161346 
	C1061.560059,422.579651 1124.195801,434.721497 1156.203735,499.625732 
	C1166.633789,520.775269 1172.465088,543.273621 1175.295776,566.513123 
	C1179.880981,604.157104 1179.411377,641.757324 1169.784302,678.615967 
	C1166.031738,692.983154 1160.838257,707.341797 1153.916870,720.444946 
	C1132.588989,760.821533 1098.533813,782.152771 1052.726318,784.393616 
	C1013.705811,786.302490 978.931030,776.183044 949.723022,748.036499 
M1072.000732,642.687378 
	C1072.629517,625.741760 1073.916382,608.786804 1073.676880,591.853455 
	C1073.488281,578.518127 1070.255615,565.488586 1064.988647,553.080811 
	C1053.657837,526.387634 1030.497559,514.016418 1001.348450,517.228577 
	C978.722900,519.721802 960.979431,531.904846 944.940735,546.955566 
	C943.079102,548.702515 941.983276,552.169739 941.970276,554.846375 
	C941.782532,593.506775 941.798706,632.168579 941.941833,670.829346 
	C941.950806,673.247070 942.700989,676.395081 944.312927,677.962463 
	C963.955994,697.061951 986.636841,708.972351 1015.016907,706.917480 
	C1036.115356,705.389832 1051.807983,695.130249 1060.972656,676.399292 
	C1065.880249,666.369080 1068.273438,655.108521 1072.000732,642.687378 
z"/>
<path fill="#15C8BD" opacity="1.000000" stroke="none" 
	d="
M2266.295410,760.383911 
	C2238.158447,781.744812 2206.703613,787.151367 2173.086670,784.123291 
	C2139.413818,781.090210 2111.282471,766.795776 2088.640137,742.216248 
	C2087.672607,742.750671 2087.354248,742.877258 2087.098877,743.082397 
	C2086.869873,743.266174 2086.594971,743.513428 2086.542969,743.773254 
	C2086.413086,744.421997 2086.345947,745.093811 2086.344971,745.756470 
	C2086.267822,796.415222 2086.200195,847.074036 2086.116455,897.732788 
	C2086.115967,898.041504 2085.905029,898.349854 2085.279785,900.059143 
	C2052.098877,905.523254 2018.101929,910.411255 1982.805786,915.324158 
	C1982.805664,755.859619 1982.805786,597.420593 1982.805786,438.618225 
	C2015.243774,438.618225 2046.172485,438.618225 2078.287354,438.618225 
	C2080.845703,454.823517 2083.404541,471.030853 2086.230713,488.930756 
	C2089.668701,484.949982 2092.019287,482.276733 2094.317871,479.559296 
	C2114.494629,455.703949 2138.605957,438.184570 2170.267334,433.351837 
	C2223.959717,425.156219 2270.926758,445.418365 2297.731689,493.568817 
	C2309.560059,514.816467 2316.321289,537.822021 2319.435059,561.721802 
	C2324.326660,599.266113 2324.300293,636.839233 2315.961914,674.012207 
	C2308.420410,707.633362 2294.316650,737.639343 2266.295410,760.383911 
M2188.139893,697.354004 
	C2200.656738,688.433228 2207.449707,675.681946 2212.207764,661.533752 
	C2216.925293,647.506226 2218.542236,632.938904 2219.064941,618.312439 
	C2219.890381,595.228516 2218.305176,572.393982 2208.516357,550.915833 
	C2197.613770,526.994934 2175.894287,514.595703 2147.465332,517.235352 
	C2124.061035,519.408447 2105.663574,531.663818 2089.362061,547.541260 
	C2087.501709,549.353271 2086.301514,552.747009 2086.287842,555.415039 
	C2086.092773,593.702454 2086.184082,631.991150 2086.104980,670.279358 
	C2086.097656,673.838989 2086.958496,676.607178 2089.683838,679.085571 
	C2100.101318,688.559265 2111.108887,697.259888 2124.510010,701.961426 
	C2145.726562,709.404846 2166.798584,710.653076 2188.139893,697.354004 
z"/>
<path fill="#16C8BE" opacity="1.000000" stroke="none" 
	d="
M2768.927246,617.063843 
	C2747.280029,560.057068 2725.954590,503.758392 2704.149902,446.195007 
	C2738.306396,440.968933 2771.140137,435.945221 2805.337891,430.712830 
	C2831.271484,506.496979 2856.149170,582.573120 2883.724609,658.577637 
	C2908.670654,585.494141 2933.616699,512.410706 2958.725098,438.851379 
	C2991.746338,438.851379 3024.573486,438.851379 3058.600830,438.851379 
	C3057.429199,442.456177 3056.564453,445.560242 3055.424561,448.559692 
	C3008.811279,571.197388 2962.213623,693.841187 2915.489014,816.436584 
	C2909.189209,832.965881 2901.379395,848.784363 2891.162354,863.343506 
	C2871.062744,891.984619 2843.197021,907.154358 2808.707764,909.667725 
	C2783.416260,911.510742 2758.079834,910.675720 2733.017090,906.021240 
	C2731.748779,905.785645 2730.514648,905.366516 2728.441162,904.813049 
	C2725.938965,876.790833 2723.437256,848.775879 2720.841553,819.705811 
	C2726.852051,820.912659 2731.612061,822.212158 2736.457764,822.777527 
	C2751.645508,824.549500 2766.833496,826.833191 2782.080811,827.453918 
	C2802.581299,828.288452 2816.896484,818.742737 2824.606201,799.252991 
	C2831.418213,782.033325 2831.736816,782.156555 2825.333740,765.310364 
	C2806.640625,716.130127 2787.944336,666.951294 2768.927246,617.063843 
z"/>
<path fill="#024582" opacity="1.000000" stroke="none" 
	d="
M1594.574585,651.999756 
	C1594.574585,580.436829 1594.574585,509.873932 1594.574585,438.733337 
	C1626.649170,438.733337 1657.823242,438.733337 1690.127563,438.733337 
	C1692.643555,455.410675 1695.203369,472.378082 1697.962158,490.664551 
	C1700.810425,487.608734 1702.832275,485.551392 1704.730835,483.386078 
	C1738.767090,444.569183 1781.384766,427.157288 1832.895630,432.173889 
	C1845.909180,433.441193 1858.488281,436.721252 1870.105591,442.846893 
	C1898.456543,457.795898 1910.647095,482.983429 1913.922852,513.470825 
	C1914.845947,522.061523 1915.011353,530.765076 1915.020386,539.417419 
	C1915.100464,615.719543 1915.066895,692.021912 1915.067017,768.324158 
	C1915.067017,771.904907 1915.067017,775.485657 1915.067017,779.450562 
	C1880.405396,779.450562 1846.892700,779.450562 1812.157715,779.450562 
	C1812.157715,775.512512 1812.157715,771.962830 1812.157715,768.413147 
	C1812.156860,700.774048 1812.227661,633.134705 1812.055176,565.496033 
	C1812.035767,557.899475 1811.457275,550.112061 1809.707520,542.753296 
	C1806.302856,528.434082 1797.017212,519.860535 1782.128784,517.565491 
	C1767.877686,515.368713 1754.265747,517.661743 1741.036377,522.831482 
	C1726.606689,528.470337 1714.246948,537.456055 1702.105957,546.895935 
	C1697.520996,550.460754 1698.010010,554.787659 1698.010010,559.382324 
	C1698.009155,628.687439 1698.009399,697.992554 1698.009155,767.297668 
	C1698.009155,770.951721 1698.009033,774.605774 1698.009033,778.140686 
	C1690.457886,780.347961 1619.467773,781.140503 1596.229736,779.390503 
	C1596.000732,779.161316 1595.760254,778.942383 1595.545410,778.700623 
	C1595.325439,778.452759 1594.950684,778.183289 1594.949707,777.922302 
	C1594.806641,736.281494 1594.691162,694.640686 1594.574585,651.999756 
z"/>
<path fill="#15C8BD" opacity="1.000000" stroke="none" 
	d="
M2629.999512,779.975891 
	C2612.357178,779.975891 2595.714355,779.975891 2577.766846,779.975891 
	C2575.169434,764.130737 2572.613770,748.540833 2569.736084,730.986206 
	C2566.277588,734.317993 2563.785645,736.643188 2561.376465,739.051270 
	C2537.835938,762.582703 2510.116699,778.212952 2476.895508,782.956665 
	C2454.929688,786.093262 2433.100342,785.962769 2411.860352,778.098999 
	C2376.065430,764.846558 2354.153320,733.384155 2353.639648,695.338318 
	C2353.065430,652.790588 2371.384033,621.148010 2407.494629,599.301575 
	C2431.751221,584.626526 2458.253174,575.635071 2485.817627,570.363098 
	C2511.937500,565.367432 2538.424316,562.292175 2564.749512,558.369446 
	C2566.057861,558.174561 2567.361816,557.952332 2568.608887,557.752258 
	C2573.743896,535.459045 2563.330078,517.175781 2541.452148,511.948364 
	C2515.552490,505.760010 2490.250000,509.609467 2466.465576,520.800110 
	C2452.990234,527.140259 2440.598877,535.793091 2427.766602,543.483337 
	C2425.238525,544.998352 2422.926758,546.875000 2421.545898,547.854065 
	C2402.855225,529.129883 2384.605957,510.847992 2365.762451,491.970795 
	C2369.434814,488.827423 2374.247070,484.378510 2379.393311,480.356812 
	C2413.340820,453.827026 2452.005615,438.868134 2494.635254,433.873383 
	C2523.226318,430.523468 2551.775391,430.106323 2580.177979,435.812897 
	C2630.235352,445.870148 2660.665771,477.657043 2667.852051,528.097534 
	C2669.490479,539.598511 2670.378174,551.303955 2670.417480,562.919312 
	C2670.650879,631.909485 2670.538086,700.900879 2670.516357,769.891846 
	C2670.515381,772.831604 2670.261230,775.771301 2670.066406,779.975891 
	C2656.777344,779.975891 2643.888428,779.975891 2629.999512,779.975891 
M2508.726074,625.641602 
	C2496.155762,629.170349 2484.083008,633.813049 2473.270752,641.327881 
	C2466.284668,646.183655 2460.674561,652.206665 2457.254883,660.079285 
	C2447.795654,681.855896 2458.987061,702.963928 2482.477539,706.108704 
	C2491.902344,707.370483 2501.760986,706.871887 2511.261475,705.777710 
	C2530.857666,703.520752 2548.526367,696.153564 2563.806885,683.378845 
	C2567.869873,679.982117 2570.154541,676.409363 2570.005127,670.670349 
	C2569.580811,654.350830 2569.890869,638.012939 2569.814453,621.682800 
	C2569.804199,619.534607 2569.228271,617.389099 2568.885254,615.042297 
	C2548.577881,616.722351 2529.269531,620.018127 2508.726074,625.641602 
z"/>
<path fill="#024682" opacity="1.000000" stroke="none" 
	d="
M1512.007690,496.006348 
	C1529.636230,524.869873 1536.946899,556.137939 1539.764404,588.610779 
	C1541.113770,604.162354 1541.214355,619.822266 1541.924438,636.459473 
	C1530.508667,637.707214 1519.939331,636.977112 1509.424316,637.102356 
	C1498.764648,637.229309 1488.102173,637.130310 1477.440918,637.130310 
	C1466.779663,637.130310 1456.118286,637.130310 1445.457031,637.130310 
	C1434.462646,637.130310 1423.468140,637.130310 1412.473755,637.130310 
	C1401.812500,637.130310 1391.151245,637.130310 1380.489990,637.130310 
	C1369.828735,637.130310 1359.167480,637.130310 1348.506226,637.130310 
	C1337.924072,637.130310 1327.341797,637.130371 1316.869995,637.130371 
	C1313.272583,675.525146 1343.126709,710.785034 1381.642334,713.978149 
	C1420.785767,717.223328 1455.983398,706.091919 1487.739868,683.383484 
	C1490.173462,681.643250 1492.512085,679.770081 1494.946777,678.031616 
	C1495.457153,677.667236 1496.197021,677.624268 1497.422363,677.255066 
	C1509.858276,696.298096 1522.384399,715.479370 1535.322388,735.291199 
	C1532.483643,737.684875 1530.058350,739.876221 1527.485352,741.877502 
	C1492.762939,768.885193 1453.001343,782.614685 1409.494507,785.839417 
	C1381.127197,787.941895 1352.937134,786.700867 1325.365967,778.579834 
	C1269.511108,762.127747 1234.114990,725.854797 1219.663208,669.431396 
	C1210.067017,631.965698 1209.360718,594.108215 1218.869263,556.710022 
	C1235.477905,491.385803 1278.682983,452.424896 1343.150635,436.232941 
	C1370.015259,429.485474 1397.229370,429.692413 1424.359131,435.511108 
	C1461.663208,443.511871 1491.031250,463.059998 1512.007690,496.006348 
M1363.945068,508.262207 
	C1336.762817,519.076477 1317.405518,547.351196 1318.023438,575.313721 
	C1361.353638,575.313721 1404.679443,575.313721 1448.431030,575.313721 
	C1447.401489,561.170532 1444.152222,548.404480 1438.087158,536.405212 
	C1429.727905,519.867310 1416.330322,509.741638 1398.134033,506.587372 
	C1387.290039,504.707611 1376.291016,504.589935 1363.945068,508.262207 
z"/>
<path fill="#0A4B86" opacity="1.000000" stroke="none" 
	d="
M2383.787842,919.998779 
	C2383.787842,893.769348 2383.787842,868.539612 2383.787842,842.117249 
	C2388.707764,842.117249 2392.600830,842.117249 2396.493896,842.117310 
	C2411.152344,842.117493 2425.814941,841.920593 2440.467041,842.223022 
	C2445.728760,842.331543 2451.218750,842.885193 2456.169922,844.538025 
	C2476.914795,851.463257 2483.002686,876.041565 2468.251465,892.181091 
	C2467.383301,893.130920 2466.496826,894.064209 2465.285400,895.362610 
	C2479.039795,903.237854 2483.811768,915.027649 2481.231689,930.127625 
	C2478.812256,944.285645 2470.125977,952.447571 2456.578613,955.722229 
	C2452.077148,956.810303 2447.368164,957.482544 2442.743896,957.540710 
	C2424.757080,957.766724 2406.766357,957.683716 2388.777100,957.662415 
	C2387.512695,957.660889 2386.248779,957.227295 2383.787842,956.774414 
	C2383.787842,944.754944 2383.787842,932.876709 2383.787842,919.998779 
M2407.162354,940.276978 
	C2420.138428,940.199646 2433.135986,940.553772 2446.084229,939.913269 
	C2457.125488,939.366943 2462.014404,933.814575 2462.121338,923.582947 
	C2462.230225,913.168091 2457.643799,907.151672 2446.777344,906.526123 
	C2432.615723,905.710876 2418.371582,906.326721 2403.415283,906.326721 
	C2403.415283,917.383789 2403.378418,927.609924 2403.491943,937.834351 
	C2403.500244,938.582153 2404.598389,939.317871 2407.162354,940.276978 
M2449.446289,886.893433 
	C2456.554199,883.212708 2457.752441,877.055237 2456.358643,869.962524 
	C2455.177979,863.955383 2450.866943,860.364197 2445.276855,860.148376 
	C2431.495605,859.616150 2417.679688,859.973938 2403.776855,859.973938 
	C2403.776855,869.912292 2403.776855,879.009583 2403.776855,889.111694 
	C2418.979492,888.553589 2433.495605,890.522644 2449.446289,886.893433 
z"/>
<path fill="#094A85" opacity="1.000000" stroke="none" 
	d="
M2307.978516,957.715576 
	C2294.396240,957.715515 2281.809326,957.715515 2268.513672,957.715515 
	C2268.513672,919.034241 2268.513672,881.277527 2268.513672,842.995239 
	C2270.074951,842.708557 2271.631836,842.179199 2273.190430,842.173767 
	C2290.842773,842.112305 2308.499512,841.908447 2326.145020,842.265198 
	C2331.361084,842.370605 2336.839355,843.358887 2341.690430,845.246460 
	C2361.226318,852.848083 2366.472900,876.523621 2352.333740,892.010559 
	C2351.446533,892.982239 2350.250244,893.671631 2348.945557,894.688904 
	C2350.488525,895.971008 2351.416260,896.890930 2352.481934,897.604309 
	C2365.001465,905.984741 2367.557373,917.865295 2364.745361,931.787720 
	C2361.953857,945.609253 2352.928223,953.409058 2339.780029,955.685181 
	C2329.696289,957.430847 2319.255371,957.114746 2307.978516,957.715576 
M2289.979736,906.127136 
	C2289.171387,906.624451 2287.755127,907.013855 2287.644775,907.635193 
	C2285.739746,918.365112 2286.471436,929.055176 2287.126465,939.949829 
	C2302.687256,939.949829 2316.963135,940.456726 2331.182373,939.775574 
	C2341.027344,939.304016 2345.704590,933.682495 2346.120605,924.459961 
	C2346.581787,914.233337 2342.526367,908.736023 2332.649170,906.694946 
	C2329.755127,906.096863 2326.709961,906.080261 2323.732422,906.061951 
	C2313.101074,905.996643 2302.469238,906.045105 2289.979736,906.127136 
M2327.001221,888.584229 
	C2337.808350,885.881226 2341.636719,881.458557 2340.845703,872.589722 
	C2340.090576,864.117981 2334.734131,859.737488 2323.970459,859.515930 
	C2312.056885,859.270813 2300.134277,859.459900 2287.268555,859.459900 
	C2286.852051,869.672668 2286.540283,879.037903 2287.527588,888.864258 
	C2300.826172,888.864258 2313.076660,888.864258 2327.001221,888.584229 
z"/>
<path fill="#084984" opacity="1.000000" stroke="none" 
	d="
M2587.471191,940.678711 
	C2585.830811,939.819153 2584.156006,938.794678 2584.299072,938.234070 
	C2584.862305,936.025696 2585.857178,933.888489 2586.940674,931.857544 
	C2604.651123,898.658936 2622.388428,865.474792 2640.163086,832.310608 
	C2641.380371,830.039673 2642.942627,827.953918 2644.392090,825.708313 
	C2649.997559,830.806030 2703.325195,929.684814 2706.272461,940.638367 
	C2700.110352,940.638367 2694.236084,940.720764 2688.364990,940.610779 
	C2684.124268,940.531372 2683.312500,936.761353 2681.816162,933.931213 
	C2671.542969,914.502380 2661.357910,895.026978 2651.099121,875.590515 
	C2649.573486,872.699829 2647.811035,869.934204 2645.275391,865.602356 
	C2642.983643,869.244751 2641.194336,871.722168 2639.778320,874.397156 
	C2629.806152,893.230652 2619.613525,911.957397 2610.144043,931.041870 
	C2606.627197,938.129517 2602.613525,942.378784 2594.261475,940.795654 
	C2592.329834,940.429504 2590.271729,940.732117 2587.471191,940.678711 
z"/>
<path fill="#094A85" opacity="1.000000" stroke="none" 
	d="
M2490.393555,859.785156 
	C2487.770508,854.690552 2485.457275,850.270203 2483.228271,845.807983 
	C2482.975342,845.301575 2483.194092,844.559631 2483.194092,842.512329 
	C2489.263428,842.426270 2495.482178,841.651672 2501.431396,842.589783 
	C2503.831787,842.968384 2506.165771,846.813477 2507.635986,849.559631 
	C2518.000244,868.918945 2528.115479,888.411682 2538.356445,907.837524 
	C2539.853760,910.678101 2541.595947,913.389709 2543.922607,917.348389 
	C2546.166504,913.830261 2547.859131,911.543579 2549.174072,909.057190 
	C2559.440918,889.645020 2569.951172,870.350708 2579.677002,850.669556 
	C2582.983154,843.979431 2587.010254,841.102905 2594.290283,842.045898 
	C2597.749756,842.493958 2601.315430,842.122803 2605.140625,842.122803 
	C2602.685791,852.015137 2549.595703,951.201355 2543.025391,958.043457 
	C2525.452148,925.248535 2508.090332,892.847717 2490.393555,859.785156 
z"/>
<path fill="#1B578E" opacity="1.000000" stroke="none" 
	d="
M2166.615723,919.958984 
	C2166.743652,927.323792 2167.762695,934.134155 2166.371582,940.410400 
	C2162.745361,956.771545 2148.399902,962.887512 2133.330566,955.256836 
	C2131.854980,954.509644 2130.490234,953.543762 2130.124268,953.320435 
	C2126.913330,955.229065 2124.267334,956.801819 2120.365723,959.120789 
	C2120.365723,932.291138 2120.365723,907.462524 2120.365723,882.232605 
	C2122.096191,881.745911 2123.911377,881.235413 2127.142578,880.326660 
	C2127.142578,889.884827 2127.142578,898.555664 2127.142578,907.730896 
	C2150.301758,898.037903 2159.694580,900.993835 2166.615723,919.958984 
M2144.614990,908.336243 
	C2130.194824,910.911255 2127.558594,913.864807 2127.545166,927.469482 
	C2127.541748,930.786316 2127.487549,934.104370 2127.559326,937.419678 
	C2127.719971,944.827576 2130.336670,948.070068 2138.212402,950.771057 
	C2145.153320,953.151489 2151.260742,951.758850 2155.426758,946.846313 
	C2165.151367,935.379089 2160.060547,914.389282 2144.614990,908.336243 
z"/>
<path fill="#17558C" opacity="1.000000" stroke="none" 
	d="
M2206.552979,922.243347 
	C2208.559570,916.848083 2210.381348,912.205750 2211.937500,907.476074 
	C2213.491211,902.754700 2216.486328,902.579041 2221.111816,904.280090 
	C2216.605469,916.069580 2212.282959,927.510010 2207.859375,938.911072 
	C2204.135254,948.508789 2200.593506,958.193848 2196.418213,967.594727 
	C2192.437012,976.558350 2185.343018,979.862671 2176.158203,978.196716 
	C2172.592285,977.549927 2172.057129,975.457703 2172.885742,971.767029 
	C2174.661865,971.767029 2176.562500,971.795898 2178.461914,971.762207 
	C2189.303711,971.570129 2195.340332,963.036072 2191.519287,952.808716 
	C2186.172119,938.497009 2180.487549,924.311584 2174.972412,910.062378 
	C2174.386475,908.548157 2173.969971,906.968262 2173.327881,904.958435 
	C2177.699951,901.915833 2180.351318,902.276428 2182.199951,907.549500 
	C2185.825439,917.890564 2189.759521,928.123901 2193.596924,938.390198 
	C2194.519531,940.858765 2195.563232,943.282043 2197.272705,947.511414 
	C2200.640137,938.303345 2203.445801,930.630676 2206.552979,922.243347 
z"/>
<path fill="#14C8BD" opacity="1.000000" stroke="none" 
	d="
M434.403381,436.410767 
	C456.746948,413.393158 483.676697,400.471222 514.104309,394.492340 
	C521.891479,392.962219 529.948059,392.178772 537.885864,392.142487 
	C584.845398,391.927704 631.806396,392.026031 678.766907,392.054810 
	C681.362183,392.056396 683.957275,392.377472 687.216309,392.593933 
	C687.459778,395.855164 687.861145,398.743103 687.863342,401.631378 
	C687.899780,449.591003 688.503113,497.561279 687.678345,545.506775 
	C687.074402,580.616089 674.490601,611.662048 651.133789,638.175232 
	C626.559814,666.070251 595.752869,682.939941 559.097534,687.527771 
	C519.188660,692.522888 482.288025,683.178955 449.994141,658.614929 
	C416.798615,633.365173 397.242096,599.414490 392.584259,558.332153 
	C387.324615,511.942596 400.878052,470.833282 434.403381,436.410767 
z"/>
<path fill="#FDFEFE" opacity="1.000000" stroke="none" 
	d="
M1071.901001,643.545288 
	C1068.273438,655.108521 1065.880249,666.369080 1060.972656,676.399292 
	C1051.807983,695.130249 1036.115356,705.389832 1015.016907,706.917480 
	C986.636841,708.972351 963.955994,697.061951 944.312927,677.962463 
	C942.700989,676.395081 941.950806,673.247070 941.941833,670.829346 
	C941.798706,632.168579 941.782532,593.506775 941.970276,554.846375 
	C941.983276,552.169739 943.079102,548.702515 944.940735,546.955566 
	C960.979431,531.904846 978.722900,519.721802 1001.348450,517.228577 
	C1030.497559,514.016418 1053.657837,526.387634 1064.988647,553.080811 
	C1070.255615,565.488586 1073.488281,578.518127 1073.676880,591.853455 
	C1073.916382,608.786804 1072.629517,625.741760 1071.901001,643.545288 
z"/>
<path fill="#FDFFFE" opacity="1.000000" stroke="none" 
	d="
M2187.529053,697.766479 
	C2166.798584,710.653076 2145.726562,709.404846 2124.510010,701.961426 
	C2111.108887,697.259888 2100.101318,688.559265 2089.683838,679.085571 
	C2086.958496,676.607178 2086.097656,673.838989 2086.104980,670.279358 
	C2086.184082,631.991150 2086.092773,593.702454 2086.287842,555.415039 
	C2086.301514,552.747009 2087.501709,549.353271 2089.362061,547.541260 
	C2105.663574,531.663818 2124.061035,519.408447 2147.465332,517.235352 
	C2175.894287,514.595703 2197.613770,526.994934 2208.516357,550.915833 
	C2218.305176,572.393982 2219.890381,595.228516 2219.064941,618.312439 
	C2218.542236,632.938904 2216.925293,647.506226 2212.207764,661.533752 
	C2207.449707,675.681946 2200.656738,688.433228 2187.529053,697.766479 
z"/>
<path fill="#FCFEFE" opacity="1.000000" stroke="none" 
	d="
M2509.499512,625.397705 
	C2529.269531,620.018127 2548.577881,616.722351 2568.885254,615.042297 
	C2569.228271,617.389099 2569.804199,619.534607 2569.814453,621.682800 
	C2569.890869,638.012939 2569.580811,654.350830 2570.005127,670.670349 
	C2570.154541,676.409363 2567.869873,679.982117 2563.806885,683.378845 
	C2548.526367,696.153564 2530.857666,703.520752 2511.261475,705.777710 
	C2501.760986,706.871887 2491.902344,707.370483 2482.477539,706.108704 
	C2458.987061,702.963928 2447.795654,681.855896 2457.254883,660.079285 
	C2460.674561,652.206665 2466.284668,646.183655 2473.270752,641.327881 
	C2484.083008,633.813049 2496.155762,629.170349 2509.499512,625.397705 
z"/>
<path fill="#FCFDFE" opacity="1.000000" stroke="none" 
	d="
M1364.744385,508.075562 
	C1376.291016,504.589935 1387.290039,504.707611 1398.134033,506.587372 
	C1416.330322,509.741638 1429.727905,519.867310 1438.087158,536.405212 
	C1444.152222,548.404480 1447.401489,561.170532 1448.431030,575.313721 
	C1404.679443,575.313721 1361.353638,575.313721 1318.023438,575.313721 
	C1317.405518,547.351196 1336.762817,519.076477 1364.744385,508.075562 
z"/>
<path fill="#FBFEFE" opacity="1.000000" stroke="none" 
	d="
M2406.176270,940.168091 
	C2404.598389,939.317871 2403.500244,938.582153 2403.491943,937.834351 
	C2403.378418,927.609924 2403.415283,917.383789 2403.415283,906.326721 
	C2418.371582,906.326721 2432.615723,905.710876 2446.777344,906.526123 
	C2457.643799,907.151672 2462.230225,913.168091 2462.121338,923.582947 
	C2462.014404,933.814575 2457.125488,939.366943 2446.084229,939.913269 
	C2433.135986,940.553772 2420.138428,940.199646 2406.176270,940.168091 
z"/>
<path fill="#F8F8FA" opacity="1.000000" stroke="none" 
	d="
M2448.701172,887.243408 
	C2433.495605,890.522644 2418.979492,888.553589 2403.776855,889.111694 
	C2403.776855,879.009583 2403.776855,869.912292 2403.776855,859.973938 
	C2417.679688,859.973938 2431.495605,859.616150 2445.276855,860.148376 
	C2450.866943,860.364197 2455.177979,863.955383 2456.358643,869.962524 
	C2457.752441,877.055237 2456.554199,883.212708 2448.701172,887.243408 
z"/>
<path fill="#F8FBFD" opacity="1.000000" stroke="none" 
	d="
M2290.908691,906.088867 
	C2302.469238,906.045105 2313.101074,905.996643 2323.732422,906.061951 
	C2326.709961,906.080261 2329.755127,906.096863 2332.649170,906.694946 
	C2342.526367,908.736023 2346.581787,914.233337 2346.120605,924.459961 
	C2345.704590,933.682495 2341.027344,939.304016 2331.182373,939.775574 
	C2316.963135,940.456726 2302.687256,939.949829 2287.126465,939.949829 
	C2286.471436,929.055176 2285.739746,918.365112 2287.644775,907.635193 
	C2287.755127,907.013855 2289.171387,906.624451 2290.908691,906.088867 
z"/>
<path fill="#F6F7F9" opacity="1.000000" stroke="none" 
	d="
M2326.164062,888.724243 
	C2313.076660,888.864258 2300.826172,888.864258 2287.527588,888.864258 
	C2286.540283,879.037903 2286.852051,869.672668 2287.268555,859.459900 
	C2300.134277,859.459900 2312.056885,859.270813 2323.970459,859.515930 
	C2334.734131,859.737488 2340.090576,864.117981 2340.845703,872.589722 
	C2341.636719,881.458557 2337.808350,885.881226 2326.164062,888.724243 
z"/>
<path fill="#F9FBFC" opacity="1.000000" stroke="none" 
	d="
M2145.375000,908.436768 
	C2160.060547,914.389282 2165.151367,935.379089 2155.426758,946.846313 
	C2151.260742,951.758850 2145.153320,953.151489 2138.212402,950.771057 
	C2130.336670,948.070068 2127.719971,944.827576 2127.559326,937.419678 
	C2127.487549,934.104370 2127.541748,930.786316 2127.545166,927.469482 
	C2127.558594,913.864807 2130.194824,910.911255 2145.375000,908.436768 
z"/>
</svg>